<svg width="268" height="68" viewBox="0 0 268 68" fill="none" xmlns="http://www.w3.org/2000/svg">
<g clip-path="url(#clip0_232_1720)">
<mask id="mask0_232_1720" style="mask-type:luminance" maskUnits="userSpaceOnUse" x="0" y="0" width="268" height="68">
<path d="M268 0H0V67.9822H268V0Z" fill="white"/>
</mask>
<g mask="url(#mask0_232_1720)">
<path d="M32.7739 56.0224C37.5616 56.0224 41.6124 59.5887 42.1958 64.3286C36.0103 65.92 29.5272 65.92 23.3526 64.3286C23.947 59.5888 27.9863 56.0225 32.7739 56.0224ZM49.2946 49.154C52.6845 45.7855 58.0664 45.4562 61.8415 48.3857C58.6057 53.861 54.0159 58.4257 48.5238 61.6626C45.5852 57.8991 45.9157 52.5336 49.2946 49.154ZM3.75056 48.3528C7.53669 45.4232 12.9075 45.7526 16.2975 49.1212C19.6764 52.5006 20.007 57.8662 17.0683 61.6297C11.5762 58.4038 6.9864 53.828 3.75056 48.3528ZM32.7852 47.541C34.4251 47.541 35.7568 48.8795 35.7569 50.5145C35.7569 52.1493 34.4249 53.4773 32.7739 53.4773C31.1341 53.4772 29.8022 52.1491 29.8022 50.5033C29.8023 48.8685 31.1343 47.5411 32.7852 47.541ZM43.285 43.1632C44.4517 42.0111 46.3339 42.0111 47.5006 43.1632C48.667 44.3263 48.6672 46.2024 47.5006 47.3654C46.3339 48.5285 44.4517 48.5285 43.285 47.3654C42.1185 46.2024 42.1185 44.3263 43.285 43.1632ZM18.0809 43.1303C19.2476 41.9782 21.1291 41.9782 22.2958 43.1303C23.4625 44.2934 23.4625 46.1695 22.2958 47.3325C21.1292 48.4954 19.2475 48.4954 18.0809 47.3325C16.9143 46.1695 16.9143 44.2934 18.0809 43.1303ZM1.19693 23.3028C5.95163 23.8843 9.52895 27.9113 9.52895 32.6952C9.52895 37.4792 5.95164 41.5061 1.19693 42.0877C-0.398974 35.9212 -0.398977 29.4583 1.19693 23.3028ZM64.4942 23.3028C66.0901 29.4693 66.0901 35.9322 64.4942 42.0877C59.7395 41.5061 56.1622 37.4792 56.1622 32.6952C56.1622 27.9222 59.7395 23.8843 64.4942 23.3028ZM15.0431 29.7218C16.694 29.7218 18.0254 31.0494 18.0254 32.6952C18.0254 34.3411 16.694 35.6686 15.0431 35.6686C13.3922 35.6686 12.0601 34.3411 12.0601 32.6952C12.0601 31.0494 13.3922 29.7218 15.0431 29.7218ZM50.615 29.7218C52.255 29.7218 53.5868 31.0604 53.5868 32.6952C53.5868 34.33 52.2553 35.6579 50.6044 35.6581C48.9645 35.6581 47.6327 34.3299 47.6327 32.684C47.6328 31.0493 48.9643 29.7219 50.615 29.7218ZM18.114 18.0691C19.2806 16.9171 21.1622 16.9171 22.3288 18.0691C23.4955 19.2322 23.4955 21.1082 22.3288 22.2713C21.1622 23.4343 19.2806 23.4343 18.114 22.2713C16.9473 21.1082 16.9473 19.2322 18.114 18.0691ZM43.2739 18.0474C44.4295 16.8953 46.3121 16.8843 47.4788 18.0474C48.6341 19.1995 48.6451 21.0754 47.4788 22.2384C46.3231 23.4015 44.4405 23.4015 43.2739 22.2384C42.1185 21.0864 42.1185 19.2104 43.2739 18.0474ZM17.0901 3.77188C20.0398 7.54635 19.7098 12.9009 16.3199 16.2805C12.93 19.649 7.54754 19.9894 3.77237 17.0488C7.00822 11.5735 11.598 6.99777 17.0901 3.77188ZM48.502 3.739C53.9941 6.96492 58.5729 11.5295 61.8197 17.0047C58.0445 19.9454 52.6621 19.6161 49.2722 16.2476C45.8934 12.8681 45.5633 7.5025 48.502 3.739ZM32.7852 12.0559C34.4251 12.0559 35.7569 13.3839 35.7569 15.0187C35.7568 16.6536 34.4138 17.981 32.7739 17.981C31.1341 17.9809 29.8022 16.6534 29.8022 15.0076C29.8023 13.4239 31.0522 12.1285 32.6313 12.0491L32.7852 12.0559ZM23.3639 1.19322C29.5493 -0.397744 36.032 -0.397733 42.2064 1.19322C41.6121 5.93331 37.5729 9.4996 32.7852 9.4996C27.9974 9.49954 23.9582 5.93329 23.3639 1.19322Z" fill="#E72429"/>
<path d="M102.29 61.5745L104.931 55.4962H106.78L101.035 67.9823H99.153L101.354 63.3302L97.5571 55.4962H99.5378L102.29 61.5745ZM129.09 55.233C131.511 55.233 132.271 56.8019 132.447 57.592L130.928 58.1623C130.851 57.7015 130.487 56.7033 129.09 56.7033C128.209 56.7033 127.626 57.2734 127.626 57.8769C127.626 58.4035 127.956 58.7875 128.639 58.9412L130.069 59.2484C131.665 59.5995 132.513 60.5653 132.513 61.8599C132.513 63.1547 131.467 64.5918 129.277 64.5918C126.855 64.5918 125.821 63.0339 125.678 62.0244L127.23 61.4795C127.341 62.3886 128.035 63.1217 129.288 63.1217C130.256 63.1217 130.796 62.5734 130.796 61.9481C130.796 61.3995 130.388 60.9826 129.662 60.818L128.154 60.4884C126.779 60.1922 125.953 59.2595 125.953 58.0196C125.953 56.5164 127.362 55.2331 129.09 55.233ZM190.251 55.233C192.97 55.233 194.489 57.098 194.489 59.8411C194.489 60.0605 194.467 60.28 194.456 60.3897H187.808C187.841 61.9588 188.987 63.0559 190.472 63.0559C191.958 63.0558 192.619 62.2659 192.949 61.2785L194.434 61.7942V61.8054C193.939 63.3633 192.53 64.5918 190.472 64.5918C188.106 64.5918 186.025 62.8696 186.025 59.8851C186.025 57.1202 188.028 55.2331 190.251 55.233ZM147.735 60.7956C147.735 62.0025 148.285 63.067 149.737 63.067C151.19 63.067 151.828 62.1564 151.829 60.818V55.5073H153.557V62.6829C153.557 63.3742 153.613 63.9995 153.645 64.3071H151.994C151.961 64.1095 151.917 63.6157 151.917 63.2427C151.444 64.1533 150.343 64.5817 149.308 64.5817C147.25 64.581 146.007 63.045 146.007 61.0482V55.5073H147.735V60.7956ZM159.665 55.233C162.01 55.233 163.232 56.6921 163.595 58.0307L162.032 58.6892C161.811 57.8334 161.173 56.8236 159.665 56.8236C158.267 56.8236 156.991 57.8441 156.991 59.8957H156.98C156.98 61.9037 158.246 62.9901 159.676 62.9901C161.327 62.99 161.933 61.871 162.142 61.1798L163.661 61.8383C163.242 63.1 161.977 64.581 159.676 64.5817C157.112 64.5817 155.219 62.573 155.219 59.8957C155.219 57.2186 157.145 55.233 159.665 55.233ZM172.597 60.7956C172.597 62.0026 173.148 63.067 174.601 63.067C176.054 63.067 176.692 62.1564 176.692 60.818V55.5073H178.42V62.6829C178.42 63.3742 178.475 63.9995 178.508 64.3071H176.857C176.824 64.1095 176.78 63.6157 176.78 63.2427C176.306 64.1533 175.206 64.5817 174.171 64.5817C172.113 64.581 170.869 63.045 170.869 61.0482V55.5073H172.597V60.7956ZM136.563 55.5073H138.478V57.0651H136.574V61.6409C136.574 62.4417 136.905 62.8473 137.807 62.8473C138.027 62.8473 138.335 62.8149 138.489 62.771V64.2302C138.346 64.2849 137.906 64.3948 137.312 64.3948C135.804 64.3948 134.846 63.4836 134.846 61.8817V57.0539H133.162V55.4962H133.636C134.593 55.4961 134.989 54.9143 134.989 54.1463V52.7201H136.563V55.5073ZM167.535 55.5073H169.45V57.0651H167.545V61.6409C167.546 62.4417 167.876 62.8473 168.779 62.8473C168.999 62.8473 169.307 62.8149 169.461 62.771V64.2302C169.318 64.2849 168.878 64.3948 168.284 64.3948C166.776 64.3948 165.817 63.4837 165.817 61.8817V57.0539H164.134V55.4962H164.607C165.565 55.4962 165.961 54.9143 165.961 54.1463V52.7201H167.535V55.5073ZM118.37 64.3179V64.3071H118.381L118.37 64.3179ZM121.056 55.2547C123.168 55.2549 124.214 56.7688 124.214 58.7326V64.3179H122.486V59.0293C122.486 57.8005 121.969 56.8125 120.428 56.8125C119.074 56.8125 118.37 57.888 118.37 59.2267V64.3071H116.653V55.5073H118.337V56.769C118.975 55.6718 120.021 55.2547 121.056 55.2547ZM92.5602 51.3374C95.0367 51.3374 96.4896 52.797 96.4896 54.8488C96.4896 56.2423 95.6856 57.2297 94.5408 57.6466C96.027 58.0087 96.8852 59.3255 96.8852 60.7739C96.8852 62.8256 95.2568 64.3071 92.8684 64.3071H88.3118V51.3262H92.5487L92.5602 51.3374ZM114.067 64.3071H112.228V51.3268H114.067V64.3071ZM144.312 55.3645C144.554 55.3646 144.785 55.3973 144.884 55.4192V57.2407C144.631 57.2078 144.367 57.1861 144.136 57.1861C142.683 57.1861 141.714 57.9538 141.714 59.8957V64.3071H139.986V55.5073H141.67V57.0433C142.308 55.6937 143.409 55.3645 144.312 55.3645ZM185.002 55.3645C185.244 55.3645 185.475 55.3972 185.574 55.4192V57.2407C185.321 57.2078 185.057 57.1861 184.826 57.1861C183.373 57.1861 182.405 57.9538 182.405 59.8957V64.3071H180.677V55.5073H182.36V57.0433C182.999 55.6938 184.099 55.3646 185.002 55.3645ZM90.1169 62.7375H92.6151C94.068 62.7375 95.0583 61.9368 95.0583 60.664C95.0583 59.3912 94.2658 58.5465 92.6923 58.5465H90.1169V62.7375ZM127.23 61.4795C127.23 61.4784 127.23 61.477 127.23 61.4758H127.241L127.23 61.4795ZM190.274 56.7467C188.821 56.7467 187.941 57.8662 187.864 58.9964H192.695C192.662 57.7346 191.837 56.7468 190.274 56.7467ZM90.1169 57.021H92.3515L92.3618 57.0105C93.8147 57.0105 94.6729 56.1544 94.6729 54.9475C94.6729 53.7406 93.7707 52.9176 92.2852 52.9174H90.1169V57.021Z" fill="#0B1722"/>
<path d="M257.038 16.9716C264.764 16.9716 267.273 21.9646 267.724 24.6748L262.156 26.2654C261.925 24.6744 260.736 22.129 257.038 22.129C254.705 22.129 253.053 23.5991 253.053 25.2997C253.053 26.77 254.132 27.8455 255.838 28.1856L260.042 29.0415C265.27 30.1716 268 33.354 268 37.4248C268 41.4955 264.587 46.268 257.544 46.268C249.532 46.2678 246.461 41.0567 246.12 37.9405L251.865 36.3492H251.875C252.107 38.8399 253.978 41.0566 257.5 41.0566C260.229 41.0565 261.65 39.586 261.65 37.8853C261.65 36.415 260.626 35.2736 258.414 34.8237L254.319 33.9133C249.433 32.8379 246.868 29.6671 246.868 25.8707C246.868 21.0538 251.304 16.9716 257.038 16.9716ZM105.691 4.38672C116.158 4.38678 122.002 10.3884 123.829 17.4216L117.401 19.5727C116.212 14.701 112.46 10.7835 105.691 10.7835C98.922 10.7835 92.3841 15.6003 92.3841 25.3438C92.3841 35.0873 98.8665 39.7396 105.746 39.7397C112.624 39.7397 116.378 35.4275 117.742 30.8958L123.994 32.9371C122.178 39.7399 116.036 46.2574 105.746 46.2574C95.0628 46.2574 85.6924 38.6766 85.402 25.9539L85.395 25.355C85.395 12.2648 95.2236 4.38672 105.691 4.38672ZM139.183 17.0157C144.069 17.0157 146.568 19.5613 147.316 21.4376V17.8058H153.744V40.3652C153.744 42.6361 153.975 44.8412 154.03 45.4121H147.724C147.613 44.7865 147.438 43.3162 147.438 41.4401C146.183 44.1064 143.288 46.1476 139.304 46.1476C131.17 46.1475 125.942 39.7394 125.942 31.4662C125.942 23.1931 131.225 17.0157 139.183 17.0157ZM228.113 17.0157C233 17.0157 235.498 19.5614 236.246 21.4376V17.8058H242.675V40.3652C242.675 42.6361 242.906 44.8412 242.961 45.4121H236.654C236.544 44.7866 236.368 43.3162 236.368 41.4401C235.113 44.1064 232.219 46.1476 228.235 46.1476C220.101 46.1476 214.873 39.7394 214.873 31.4662C214.873 23.1931 220.156 17.0157 228.113 17.0157ZM174.623 17.0269C181.392 17.027 184.628 21.8988 184.628 27.9665V45.4233H178.035V29.1072C178.035 25.7058 176.505 22.9848 172.344 22.9848C168.591 22.9849 166.6 25.8707 166.6 29.5026V45.4121H160.007V17.8169H166.434V21.5034C168.25 18.3325 171.553 17.0269 174.623 17.0269ZM200.784 37.534L207.95 17.8169H214.884L204.032 45.4121H197.439L186.179 17.8169H193.455L200.784 37.534ZM140.042 22.7546C135.672 22.7546 132.535 26.1558 132.535 31.4774C132.535 36.799 135.43 40.4857 140.042 40.4857C144.367 40.4855 147.371 36.7989 147.371 31.4774C147.371 26.1559 144.411 22.7547 140.042 22.7546ZM228.972 22.7546C224.602 22.7547 221.465 26.1558 221.465 31.4774C221.465 36.7989 224.36 40.4855 228.972 40.4857C233.297 40.4857 236.302 36.799 236.302 31.4774C236.302 26.1558 233.341 22.7546 228.972 22.7546Z" fill="#0B1722"/>
</g>
</g>
<defs>
<clipPath id="clip0_232_1720">
<rect width="268" height="68" fill="white"/>
</clipPath>
</defs>
</svg>
