<svg width="256" height="48" viewBox="0 0 256 48" fill="none" xmlns="http://www.w3.org/2000/svg">
<path d="M34.6923 0C43.617 0.000403567 51.3992 4.90348 55.5113 12.1699L64.4879 8.64727C66.3333 7.92383 68.4154 8.83765 69.1375 10.6887C69.8589 12.5396 68.9472 14.628 67.1024 15.3527L58.072 18.8965C58.4272 20.5413 58.6176 22.2485 58.6176 24C58.6176 37.2545 47.9054 47.9994 34.6923 48C25.6787 48 17.83 42.9991 13.7507 35.6133L4.98197 39.3176C3.15539 40.0891 1.05147 39.229 0.282193 37.3969C-0.48695 35.5645 0.370202 33.454 2.19692 32.6824L11.2565 28.8551C10.9354 27.2871 10.767 25.6633 10.767 24C10.767 10.7452 21.4787 0 34.6923 0ZM34.6923 7.2C25.4428 7.2 17.9446 14.7216 17.9446 24C17.9446 33.2784 25.4428 40.8 34.6923 40.8C43.9413 40.7994 51.44 33.278 51.44 24C51.44 23.1745 51.3783 22.3631 51.2636 21.5695L39.5883 26.1527C37.7428 26.8768 35.6611 25.9624 34.9388 24.1113C34.2169 22.2599 35.1283 20.1717 36.9739 19.4473L48.7274 14.8324C45.7389 10.2378 40.5693 7.20038 34.6923 7.2ZM121.89 15.8098C127.75 15.8099 132.341 19.4336 132.341 26.8828V28.575H117.135C117.135 31.8766 119.143 33.9303 122.258 33.9305C124.307 33.9305 125.783 33.0445 126.398 31.7156H132.176C131.315 35.7423 127.627 38.4 122.135 38.4C115.332 38.3999 111.152 34.0512 111.152 27.1254C111.152 20.3603 115.373 15.8098 121.89 15.8098ZM245.549 15.8098C251.41 15.8098 256 19.4334 256 26.8828V28.575H240.796C240.796 31.8767 242.804 33.9304 245.918 33.9305C247.967 33.9305 249.442 33.0443 250.057 31.7156H255.836C254.976 35.7423 251.287 38.3999 245.796 38.4C238.992 38.4 234.812 34.0512 234.812 27.1254C234.812 20.3604 239.033 15.8099 245.549 15.8098ZM96.3957 8.4C103.076 8.40021 108.24 12.427 109.059 18.1852H102.83C102.011 15.447 99.756 13.7556 96.5184 13.7555C91.9282 13.7555 88.8129 17.2186 88.8127 23.3391C88.8127 29.5001 91.846 33.0035 96.5592 33.0035C100.801 33.0035 103.322 30.6482 103.404 26.9637H96.9693V22.4133H109.347V26.0379C109.347 33.6886 104.018 38.3601 96.5184 38.3602C88.1984 38.3602 82.5429 32.6414 82.5429 23.4199C82.543 13.957 88.5676 8.4 96.3957 8.4ZM202.963 15.8098C207.799 15.8098 212.389 17.9435 212.389 23.2184V37.957H206.652V34.9371H206.487C205.38 36.9504 203.29 38.3602 199.971 38.3602C195.708 38.3601 192.552 36.1852 192.552 31.8363C192.552 26.9638 196.569 25.3525 200.832 25.1109C202.43 25.0103 205.422 24.87 206.364 24.8297V23.0578C206.323 21.2458 205.053 20.1587 202.799 20.1586C200.75 20.1586 199.438 21.0851 199.11 22.575H193.332C193.701 18.7898 197.061 15.8098 202.963 15.8098ZM147.179 15.8098C151.81 15.8098 154.884 18.9105 154.843 24.0246V37.957H148.819V25.0711C148.819 22.3731 147.301 20.7621 144.801 20.7621C142.26 20.7624 140.54 22.4135 140.539 25.3125V37.957H134.474V16.091H140.252V19.9172H140.499C141.523 17.3804 143.9 15.8099 147.179 15.8098ZM165.787 29.1785H166.034L171.485 8.80313H177.264L182.715 29.2184H182.96L187.96 8.80313H194.682L186.198 37.957H180.174L174.517 18.709H174.272L168.575 37.957H162.55L154.066 8.80313H160.787L165.787 29.1785ZM223.826 31.7965H224.071L228.744 16.091H235.179L227.35 37.957H220.547L212.759 16.091H219.153L223.826 31.7965ZM206.364 28.534C205.442 28.5743 202.86 28.7157 201.815 28.8164C199.725 29.0177 198.373 29.9837 198.373 31.6746C198.373 33.3659 199.766 34.2527 201.693 34.2527C204.438 34.2525 206.405 32.4403 206.364 30.1453V28.534ZM122.013 20.2793C119.226 20.2793 117.238 22.3129 117.135 24.8297H126.603C126.603 22.172 124.717 20.2794 122.013 20.2793ZM245.673 20.2793C242.886 20.2793 240.898 22.3129 240.796 24.8297H250.263C250.263 22.1721 248.378 20.2795 245.673 20.2793Z" fill="url(#paint0_linear_259_822)"/>
<defs>
<linearGradient id="paint0_linear_259_822" x1="133.384" y1="48" x2="133.384" y2="-3.34512e-07" gradientUnits="userSpaceOnUse">
<stop stop-color="#6AFE9E"/>
<stop offset="1" stop-color="#43FCFF"/>
</linearGradient>
</defs>
</svg>
