<svg width="288" height="64" viewBox="0 0 288 64" fill="none" xmlns="http://www.w3.org/2000/svg">
<path fill-rule="evenodd" clip-rule="evenodd" d="M5.3125 49.3032L23.319 59.6187L28.5756 62.6135C30.1414 63.5008 31.9309 64 33.8322 64C35.7335 64 37.5789 63.5008 39.0887 62.6135L53.2367 54.5164C56.3683 52.6863 58.4933 49.3032 58.4933 45.4766V39.2097L46.3025 31.7227L23.319 44.922L15.7138 49.3032C14.2039 50.1351 12.4145 50.6897 10.5131 50.6897C8.61183 50.6343 6.82236 50.1906 5.3125 49.3032Z" fill="url(#paint0_linear_232_1794)"/>
<path fill-rule="evenodd" clip-rule="evenodd" d="M58.4934 18.5789V45.2548C58.4934 41.3726 56.3684 37.9896 53.2368 36.1594L45.9112 31.9445L23.2632 19.0225V4.4922L29.079 1.16464C30.5329 0.443674 32.1546 0 33.8882 0C35.7895 0 37.6349 0.499134 39.1447 1.38648L52.9572 9.31716C56.3125 11.1473 58.4934 14.6412 58.4934 18.5789Z" fill="url(#paint1_linear_232_1794)"/>
<path fill-rule="evenodd" clip-rule="evenodd" d="M5.31249 49.3032C2.125 47.5285 0 44.1455 0 40.2634V23.8474C0 20.1871 1.90131 16.9705 4.75328 15.0848L10.625 11.7573L27.9605 1.83008C25.1644 3.71569 23.2631 6.93233 23.2631 10.5926V44.9774L15.6579 49.3587C14.148 50.246 12.3585 50.7452 10.4572 50.7452C8.61182 50.6342 6.82235 50.1906 5.31249 49.3032Z" fill="url(#paint2_linear_232_1794)"/>
<path d="M207.243 19.4105C211.549 19.4105 215.687 20.6862 218.707 23.7919C221.838 27.0086 223.012 31.4453 223.012 35.7711C223.012 39.8751 222.062 44.2564 219.378 47.4731C216.693 50.6342 213.058 52.0207 208.976 52.0207C206.404 52.0207 203.272 51.355 201.091 49.9686C200.7 49.7468 200.253 50.0241 200.253 50.4122V62.7798H195.499V20.9635C199.526 20.0207 203.049 19.4105 207.243 19.4105ZM177.213 19.2998C181.295 19.2998 185.042 20.7971 187.782 23.7919C191.473 27.8404 192.48 33.9409 191.641 39.2649C191.137 42.3151 189.907 45.31 187.782 47.6393C185.042 50.6895 181.295 52.1317 177.213 52.1317C173.131 52.1316 169.384 50.6895 166.644 47.6393C163.68 44.3672 162.506 40.0414 162.506 35.7156C162.506 31.3898 163.68 27.0086 166.644 23.7919C169.384 20.7417 173.131 19.2999 177.213 19.2998ZM261.542 19.2998C265.624 19.2999 269.371 20.7972 272.111 23.7919C275.802 27.8404 276.808 33.9408 275.97 39.2649C275.466 42.3151 274.236 45.31 272.111 47.6393C269.371 50.6895 265.624 52.1316 261.542 52.1317C257.516 52.1317 253.713 50.6895 250.973 47.6393C248.009 44.3672 246.835 40.0414 246.835 35.7156C246.835 31.3898 248.009 27.0086 250.973 23.7919C253.713 20.7417 257.46 19.2998 261.542 19.2998ZM231.065 19.577C231.065 19.9098 231.345 20.1317 231.624 20.1317H243.368V23.8474H231.568C231.233 23.8474 231.009 24.1248 231.009 24.4021V39.3204C231.009 42.3706 231.345 46.4745 234.756 47.5838C236.266 48.1383 238.335 48.0831 239.957 47.8612C241.243 47.6394 242.417 47.1956 243.591 46.7519L244.486 50.5232C242.026 51.5215 239.677 52.0207 237.049 52.0207C233.917 52.0207 230.618 51.4661 228.549 48.8596C226.591 46.3084 226.312 42.4816 226.312 39.3759V13.4764L231.065 12.6446V19.577ZM117.546 19.2998C119.391 19.2998 121.46 19.5216 123.417 20.1872C124.983 20.7417 126.214 21.518 127.108 22.5716C129.177 24.9009 129.68 28.1177 129.68 31.1125V50.7452C128.227 50.967 126.773 51.1887 125.319 51.355C122.691 51.6878 120.118 51.9097 117.49 51.9097C114.582 51.9097 111.227 51.466 108.766 49.6914C106.25 47.9167 105.411 45.0882 105.411 42.1488C105.411 39.8751 106.026 37.8785 107.648 36.2148C109.157 34.6619 111.338 33.719 113.407 33.2753C115.309 32.8871 117.434 32.6652 119.391 32.7762C120.901 32.8871 122.802 33.1646 124.312 33.5528C124.648 33.6082 124.927 33.4418 124.983 33.1646C125.151 32.3882 124.815 29.3381 124.648 28.506C124.312 27.0086 123.529 25.6776 122.355 24.7348C120.789 23.5701 119 23.2373 117.098 23.2373C115.141 23.2373 113.407 23.3482 111.954 23.6255C111.227 23.7364 110.611 23.9027 110.052 24.0136C109.773 24.0691 109.493 24.1801 109.269 24.2356L108.71 20.5198C111.282 19.6325 114.861 19.2998 117.546 19.2998ZM85.2792 11.8683C88.6345 11.7019 91.9898 11.8127 95.2332 12.5891C97.8615 13.2546 100.546 14.4194 102.391 16.5269C104.237 18.5788 105.019 21.2408 105.019 24.1801C105.019 27.064 104.348 29.7815 102.335 31.9998C99.5392 34.9946 95.1215 35.993 91.207 36.3257C88.2992 36.603 85.2234 36.4919 82.3156 36.4919V51.2995H77.5623V12.7001C80.0787 12.1455 82.7069 11.9792 85.2792 11.8683ZM146.065 19.4105C149.868 19.4105 153.726 20.2426 156.187 23.3483C157.865 25.4557 158.424 28.0068 158.703 30.6133C158.815 31.6116 158.871 32.6098 158.871 33.719V51.2995H154.118V34.9948C154.118 33.9965 154.062 33.0537 154.006 32.2218C153.838 30.2253 153.503 27.896 152.273 26.2322C150.651 24.0139 148.022 23.5145 145.45 23.5145C143.325 23.5145 140.977 23.681 138.852 24.1246C138.572 24.1246 138.404 24.3465 138.404 24.6238V51.2443H133.651V20.908C137.845 19.9652 141.759 19.4105 146.065 19.4105ZM124.48 37.1576C122.858 36.3812 119.279 36.3258 117.49 36.4367C115.98 36.4922 114.582 36.7138 113.184 37.3793C111.171 38.3221 110.052 39.9305 110.052 42.1488C110.052 44.4226 110.779 46.0311 112.289 46.9184C113.967 47.9167 116.092 48.1939 117.993 48.1939C120.006 48.1939 122.523 48.1939 124.424 47.7502C124.648 47.6947 124.815 47.4729 124.815 47.2511V37.6567C124.815 37.4349 124.703 37.213 124.48 37.1576ZM177.213 23.3483C174.305 23.3483 171.845 24.4019 170.055 26.7311C168.322 28.9494 167.483 31.9444 167.483 35.7156C167.483 39.4868 168.322 42.4817 170.055 44.7001C171.845 46.9738 174.305 48.0829 177.213 48.0829C180.121 48.0829 182.582 47.0294 184.371 44.7001C186.328 42.149 186.943 38.8768 186.943 35.7156C186.943 32.5544 186.328 29.2822 184.371 26.7311C182.582 24.4573 180.121 23.3483 177.213 23.3483ZM261.542 23.3483C258.634 23.3483 256.174 24.4019 254.384 26.7311C252.651 28.9494 251.812 31.9444 251.812 35.7156C251.812 39.4868 252.651 42.4817 254.384 44.7001C256.174 46.9739 258.634 48.0829 261.542 48.0829C264.506 48.0829 266.91 47.0293 268.7 44.7001C270.657 42.149 271.272 38.8768 271.272 35.7156C271.272 32.5544 270.657 29.2822 268.7 26.7311C266.91 24.4574 264.45 23.3483 261.542 23.3483ZM207.243 23.5145C205.118 23.5145 202.713 23.6255 200.644 24.1801C200.42 24.2356 200.253 24.4574 200.253 24.6793V45.0328C200.253 45.1992 200.309 45.3655 200.477 45.4764C202.49 47.0847 205.565 48.0274 208.193 48.0274C212.108 48.0274 215.184 46.2528 216.805 42.5925C217.756 40.5405 218.036 37.9894 218.036 35.7711C218.036 33.83 217.812 32.1107 217.309 30.6133C215.799 25.9548 211.94 23.5145 207.243 23.5145ZM88.2991 15.8057C87.1248 15.8057 86.0623 15.8058 85.1116 15.8612C84.161 15.9167 83.2662 15.9723 82.3715 16.0277V32.5545H85.2232C86.7331 32.5545 88.2991 32.5544 89.809 32.4435C91.3748 32.2771 92.9966 32.1108 94.5064 31.6117C95.7366 31.168 96.9108 30.6133 97.8614 29.6705C99.4272 28.1177 99.9306 26.1765 99.9306 24.0136C99.9306 22.6272 99.7069 21.1852 98.9799 19.9652C98.3089 18.9115 97.4142 18.0242 96.3518 17.4142C95.2334 16.7487 93.9471 16.3602 92.661 16.1384C91.2071 15.9166 89.753 15.8057 88.2991 15.8057ZM282.303 18.1589H280.768V22.4791H280.177V18.1589H278.643V17.6389H282.303V18.1589ZM285.579 21.6566H285.636L287.294 17.6389H288V22.4791H287.447V18.8016H287.399L285.874 22.4791H285.34L283.815 18.8016H283.768V22.4791H283.215V17.6389H283.92L285.579 21.6566Z" fill="black"/>
<defs>
<linearGradient id="paint0_linear_232_1794" x1="21.9859" y1="64.4752" x2="40.293" y2="35.2116" gradientUnits="userSpaceOnUse">
<stop offset="0.113" stop-color="#C6DE89"/>
<stop offset="0.313" stop-color="#92BC71"/>
<stop offset="0.628" stop-color="#539453"/>
<stop offset="0.867" stop-color="#297E43"/>
<stop offset="1" stop-color="#11773D"/>
</linearGradient>
<linearGradient id="paint1_linear_232_1794" x1="23.2883" y1="22.6485" x2="58.4894" y2="22.6485" gradientUnits="userSpaceOnUse">
<stop offset="0.227" stop-color="#11773D"/>
<stop offset="0.335" stop-color="#227C41"/>
<stop offset="0.5" stop-color="#428A4C"/>
<stop offset="0.703" stop-color="#6EA460"/>
<stop offset="0.932" stop-color="#ADCD7D"/>
<stop offset="1" stop-color="#C6DE89"/>
</linearGradient>
<linearGradient id="paint2_linear_232_1794" x1="13.907" y1="39.462" x2="13.9933" y2="11.7168" gradientUnits="userSpaceOnUse">
<stop stop-color="#11773D"/>
<stop offset="1" stop-color="#C6DE89"/>
</linearGradient>
</defs>
</svg>
