<svg width="218" height="56" viewBox="0 0 218 56" fill="none" xmlns="http://www.w3.org/2000/svg">
<path d="M70 43.3984L72.7261 37.0441C75.6603 39.2461 79.5726 40.3995 83.4224 40.3995C86.2733 40.3995 88.063 39.288 88.063 37.6103C88.0214 32.9337 71.0197 36.6037 70.874 24.8388C70.8324 18.8829 76.0973 14.2902 83.5472 14.2902C87.9798 14.2902 92.4123 15.4017 95.5546 17.9182L93.0157 24.4193C90.1232 22.5739 86.5231 21.2317 83.1102 21.2317C80.7795 21.2317 79.2604 22.3432 79.2604 23.7482C79.302 28.341 96.4494 25.8244 96.6159 37.0441C96.6159 43.1467 91.4966 47.4249 84.1299 47.4249C78.7402 47.4249 73.7874 46.1456 70.0208 43.3984M174.299 34.7372C172.947 37.128 170.408 38.7637 167.453 38.7637C163.103 38.7637 159.607 35.2196 159.607 30.8575C159.607 26.4955 163.124 22.9513 167.453 22.9513C170.387 22.9513 172.926 24.5871 174.299 26.9778L181.791 22.7836C178.981 17.7504 173.592 14.3111 167.453 14.3111C158.38 14.3111 151.013 21.735 151.013 30.8785C151.013 40.022 158.38 47.4459 167.453 47.4459C173.633 47.4459 178.981 44.0485 181.791 38.9734L174.299 34.7792V34.7372ZM100.382 0.553955H109.768V46.8167H100.382V0.553955ZM185.474 0.553955V46.8167H194.859V32.9547L205.993 46.8167H218L203.849 30.3332L216.96 14.9613H205.472L194.859 27.7328V0.553955H185.474ZM137.653 34.8421C136.3 37.086 133.491 38.7637 130.328 38.7637C125.979 38.7637 122.483 35.2196 122.483 30.8575C122.483 26.4955 125.999 22.9513 130.328 22.9513C133.491 22.9513 136.28 24.7129 137.653 27.0198V34.8421ZM137.653 14.9613V18.7151C136.113 16.1147 132.305 14.2902 128.309 14.2902C120.069 14.2902 113.576 21.6301 113.576 30.8156C113.576 40.001 120.069 47.4249 128.309 47.4249C132.305 47.4249 136.113 45.6213 137.653 42.9999V46.7538H147.038V14.9613H137.653Z" fill="black"/>
<path d="M11.9863 35.0935C11.9863 38.4024 9.31306 41.0668 5.99313 41.0668C2.67319 41.0668 0 38.3809 0 35.0935C0 31.806 2.67319 29.1201 5.99313 29.1201H11.9863V35.0935ZM14.9828 35.0935C14.9828 31.7845 17.656 29.1201 20.9759 29.1201C24.2959 29.1201 26.9691 31.7845 26.9691 35.0935V50.0268C26.9691 53.3358 24.2959 56.0001 20.9759 56.0001C17.656 56.0001 14.9828 53.3358 14.9828 50.0268V35.0935Z" fill="#E01E5A"/>
<path d="M20.9855 11.9276C17.6709 11.9276 15.002 9.26749 15.002 5.9638C15.002 2.66011 17.6709 0 20.9855 0C24.3001 0 26.9691 2.66011 26.9691 5.9638V11.9276H20.9855ZM20.9855 14.9524C24.3001 14.9524 26.9691 17.6125 26.9691 20.9162C26.9691 24.2199 24.3001 26.88 20.9855 26.88H5.98356C2.66893 26.88 0 24.2199 0 20.9162C0 17.6125 2.66893 14.9524 5.98356 14.9524H20.9855Z" fill="#36C5F0"/>
<path d="M44.1994 20.9162C44.1994 17.6125 46.8726 14.9524 50.1925 14.9524C53.5124 14.9524 56.1856 17.6125 56.1856 20.9162C56.1856 24.2199 53.5124 26.88 50.1925 26.88H44.1994V20.9162ZM41.2028 20.9162C41.2028 24.2199 38.5296 26.88 35.2097 26.88C31.8897 26.88 29.2166 24.2199 29.2166 20.9162V5.9638C29.2166 2.66011 31.8897 0 35.2097 0C38.5296 0 41.2028 2.66011 41.2028 5.9638V20.9162Z" fill="#2EB67D"/>
<path d="M35.2001 44.0535C38.5147 44.0535 41.1837 46.7178 41.1837 50.0268C41.1837 53.3358 38.5147 56.0001 35.2001 56.0001C31.8855 56.0001 29.2166 53.3358 29.2166 50.0268V44.0535H35.2001ZM35.2001 41.0668C31.8855 41.0668 29.2166 38.4024 29.2166 35.0935C29.2166 31.7845 31.8855 29.1201 35.2001 29.1201H50.2021C53.5167 29.1201 56.1856 31.7845 56.1856 35.0935C56.1856 38.4024 53.5167 41.0668 50.2021 41.0668H35.2001Z" fill="#ECB22E"/>
</svg>
