<svg width="220" height="64" viewBox="0 0 220 64" fill="none" xmlns="http://www.w3.org/2000/svg">
<g clip-path="url(#clip0_232_2081)">
<path fill-rule="evenodd" clip-rule="evenodd" d="M39.7364 0.148579L3.89572 2.75948C1.01123 3.00579 0 4.87776 0 7.11099V45.9461C0 47.6867 0.629946 49.181 2.1385 51.1679L10.5599 61.9892C11.9358 63.7298 13.1957 64.1075 15.8481 63.9762L57.4743 61.4966C60.9888 61.2503 62 59.6247 62 56.8988V13.2195C62 11.8073 61.4364 11.3968 59.762 10.1981C59.6626 10.1324 59.5797 10.0667 59.4802 9.98463L48.0417 2.02055C45.2733 0.0172123 44.1294 -0.229099 39.7364 0.148579ZM16.793 12.497C13.3947 12.7269 12.6155 12.7762 10.6925 11.2162L5.78556 7.3573C5.28823 6.86468 5.5369 6.24069 6.79679 6.10932L41.2449 3.61336C44.1294 3.36705 45.638 4.36872 46.7818 5.2226L52.6834 9.45916C52.9321 9.59053 53.562 10.3295 52.816 10.3295L17.2241 12.4477L16.793 12.4806V12.497ZM12.831 56.5211V19.443C12.831 17.8338 13.3283 17.0784 14.8369 16.947L55.7005 14.5824C57.093 14.4511 57.723 15.3378 57.723 16.947V53.7789C57.723 55.4045 57.4743 56.7674 55.2032 56.8988L16.0968 59.1484C13.8257 59.2798 12.831 58.5245 12.831 56.5375V56.5211ZM51.4401 21.4299C51.6888 22.5465 51.4401 23.6796 50.2963 23.7945L48.4064 24.1722V51.5456C46.7652 52.4159 45.2567 52.9086 43.9968 52.9086C41.9909 52.9086 41.477 52.2846 39.9684 50.429L27.6513 31.266V49.805L31.5471 50.6753C31.5471 50.6753 31.5471 52.9086 28.3973 52.9086L19.7273 53.4012C19.4786 52.9086 19.7273 51.6606 20.6059 51.4143L22.877 50.7903V26.274L19.7273 26.0277C19.4786 24.9111 20.1086 23.2855 21.8658 23.1705L31.1658 22.5465L43.9968 41.9559V24.7798L40.731 24.4021C40.4823 23.0392 41.477 22.0375 42.7369 21.9061L51.4235 21.4135L51.4401 21.4299Z" fill="black"/>
<path d="M123.891 23.754C126.49 23.754 128.721 24.3 130.615 25.3909C132.51 26.4818 133.986 28.022 135.025 29.9952C136.082 31.9683 136.601 34.2627 136.601 36.8935C136.601 39.5244 136.082 41.8027 135.025 43.7759C134.053 45.6848 132.51 47.2732 130.615 48.3641C128.721 49.4549 126.473 50 123.891 50C121.293 49.9999 119.046 49.4548 117.152 48.3641C115.257 47.2732 113.714 45.6848 112.741 43.7759C111.702 41.8188 111.182 39.5244 111.182 36.8935C111.182 34.2627 111.702 31.9683 112.741 29.9952C113.781 28.022 115.257 26.4818 117.152 25.3909C119.046 24.3001 121.293 23.754 123.891 23.754ZM180.212 23.754C182.811 23.754 185.041 24.3 186.936 25.3909C188.83 26.4818 190.305 28.0221 191.345 29.9952C192.401 31.9684 192.921 34.2626 192.921 36.8935C192.921 39.5244 192.401 41.8027 191.345 43.7759C190.372 45.6847 188.83 47.2733 186.936 48.3641C185.041 49.455 182.794 50 180.212 50C177.613 50 175.366 49.455 173.471 48.3641C171.577 47.2733 170.035 45.6847 169.062 43.7759C168.023 41.8188 167.502 39.5244 167.502 36.8935C167.502 34.2626 168.023 31.9684 169.062 29.9952C170.102 28.0221 171.577 26.4818 173.471 25.3909C175.366 24.3 177.613 23.754 180.212 23.754ZM148.405 24.0916H153.636V28.6959H148.405V41.8664C148.405 42.6685 148.539 43.2947 148.791 43.7278C149.059 44.1607 149.394 44.4489 149.83 44.6093C150.249 44.7697 150.736 44.8337 151.272 44.8337C151.624 44.8337 151.993 44.8017 152.345 44.7536C152.664 44.7054 152.916 44.6414 153.1 44.6093L154.139 49.2617C153.669 49.406 153.2 49.5351 152.731 49.6314C152.127 49.7597 151.372 49.8397 150.484 49.8557C148.924 49.9038 147.533 49.6788 146.276 49.1815C145.068 48.7002 144.028 47.8981 143.307 46.8553C142.587 45.7966 142.218 44.4652 142.235 42.8772V28.6959H138.428V24.0916H142.235V18.0427L142.202 18.0107H148.405V24.0916ZM210.912 23.786C212.739 23.786 214.316 24.1552 215.674 24.909C217.049 25.663 218.156 26.8023 218.86 28.1659C219.614 29.5937 220 31.3108 220 33.3482V49.5192H213.796V34.2618C213.796 32.5616 213.327 31.2301 212.405 30.2837C211.483 29.3211 210.207 28.8241 208.581 28.8241C207.491 28.8242 206.519 29.0482 205.664 29.5133C204.809 29.9625 204.138 30.6205 203.652 31.5029C203.182 32.3531 202.948 33.4123 202.948 34.6315V49.5031H196.728V24.1076H202.68V28.4063H202.998C203.585 27.0268 204.608 25.8393 205.915 25.0373C207.257 24.2031 208.933 23.7861 210.912 23.786ZM163.663 49.5031H157.442V24.1076H163.663V49.5031ZM100.418 38.7859H100.753V15.6204H107.041V49.4871H101.391L84.6403 26.3216H84.3555V49.4871H78V15.6204H83.7011L100.418 38.7859ZM123.908 28.4704C122.483 28.4705 121.275 28.8555 120.32 29.6094C119.364 30.3634 118.644 31.3746 118.174 32.6419C117.722 33.9093 117.487 35.3214 117.487 36.8775C117.487 38.4334 117.722 39.8448 118.174 41.1121C118.644 42.3633 119.364 43.3745 120.32 44.1285C121.275 44.8664 122.466 45.2354 123.908 45.2355C125.333 45.2355 126.524 44.8663 127.463 44.1285C128.402 43.3745 129.123 42.3794 129.592 41.1121C130.062 39.8449 130.297 38.4334 130.297 36.8775C130.297 35.3214 130.062 33.9093 129.592 32.6419C129.123 31.3745 128.418 30.3634 127.463 29.6094C126.524 28.8557 125.333 28.4704 123.908 28.4704ZM180.229 28.4704C178.804 28.4704 177.596 28.8555 176.64 29.6094C175.685 30.3635 174.964 31.3745 174.494 32.6419C174.041 33.9092 173.807 35.3214 173.807 36.8775C173.807 38.4333 174.041 39.8449 174.494 41.1121C174.964 42.3634 175.685 43.3745 176.64 44.1285C177.596 44.8664 178.787 45.2355 180.229 45.2355C181.654 45.2355 182.844 44.8664 183.783 44.1285C184.722 43.3745 185.444 42.3794 185.913 41.1121C186.382 39.8449 186.617 38.4333 186.617 36.8775C186.617 35.3214 186.382 33.9092 185.913 32.6419C185.444 31.3745 184.739 30.3635 183.783 29.6094C182.844 28.8555 181.654 28.4704 180.229 28.4704ZM160.561 14.0005C161.55 14.0006 162.406 14.3216 163.11 14.9633C163.831 15.5889 164.183 16.3431 164.183 17.2413C164.183 18.1396 163.831 18.8778 163.11 19.5194C162.406 20.145 161.567 20.465 160.578 20.4651C159.589 20.4651 158.734 20.1448 158.03 19.5194C157.359 18.942 156.973 18.1075 156.973 17.2413C156.973 16.343 157.325 15.5889 158.03 14.9633C158.717 14.3376 159.622 13.9845 160.561 14.0005Z" fill="black"/>
</g>
<defs>
<clipPath id="clip0_232_2081">
<rect width="220" height="64" fill="white"/>
</clipPath>
</defs>
</svg>
