<svg width="180" height="40" viewBox="0 0 180 40" fill="none" xmlns="http://www.w3.org/2000/svg">
<path d="M109.717 28.2304C107.514 30.4292 104.44 31.7931 101.049 31.7931C94.3432 31.7931 88.9044 26.4668 88.9044 19.9001C88.9044 13.3333 94.3432 8.00706 101.049 8.00706C106.625 8.00706 111.326 11.6872 112.748 16.7019L112.766 16.7842C113.037 17.719 113.193 18.7889 113.193 19.9001C113.193 23.1452 111.866 26.0847 109.717 28.2304ZM86.8334 5.80835C82.9435 9.42387 80.5183 14.5267 80.5183 20.1881C80.5183 31.1287 89.5768 40 100.748 40C111.92 40 120.978 31.1287 120.978 20.1881C120.978 11.1346 114.777 3.50383 106.307 1.13463L106.163 1.09935C104.542 0.640801 102.675 0.37625 100.748 0.37625C95.3517 0.37625 90.4472 2.44562 86.8214 5.81423L86.8334 5.80835ZM163.822 0.0176382C159.008 0.0235171 154.685 2.08701 151.72 5.36156L151.708 5.37919C148.73 2.07525 144.39 0 139.564 0C136.184 0 133.045 1.01705 130.445 2.75132L130.499 2.71605C128.602 1.08172 126.117 0.0646678 123.392 0H123.38V39.6355L125.403 39.5414C128.668 39.4591 131.292 36.8901 131.376 33.7037L131.472 31.7166V17.8366L131.574 15.8554C131.574 15.8495 131.574 15.8436 131.574 15.8377C131.574 14.3974 131.94 13.0335 132.588 11.846L132.564 11.893C133.993 9.51205 136.592 7.94239 139.564 7.94239C142.535 7.94239 145.135 9.51205 146.539 11.846L146.557 11.8812C147.176 13.0335 147.542 14.3974 147.548 15.8495L147.65 17.8424V31.7225L147.746 33.6978C147.878 36.8724 150.471 39.4121 153.695 39.5473H153.707L155.73 39.6414V17.8424L155.82 15.8613C155.82 15.8554 155.82 15.8495 155.82 15.8436C155.82 14.3915 156.192 13.0218 156.846 11.8283L156.822 11.8754C158.251 9.50617 160.844 7.94239 163.816 7.94239C166.793 7.94239 169.393 9.51793 170.803 11.8577L170.821 11.893C171.434 13.0394 171.794 14.4033 171.794 15.8495C171.794 15.8554 171.794 15.8554 171.794 15.8613L171.908 17.8424V31.7225L172.004 33.6978C172.124 36.8783 174.729 39.4297 177.965 39.5473H177.977L180 39.6414V15.8613C179.994 7.11346 172.748 0.0235195 163.81 0.0235195C163.804 0.0235195 163.798 0.0235195 163.792 0.0235195L163.822 0.0176382ZM67.2336 28.2304C65.0125 30.5409 61.8669 31.9812 58.3792 31.9812C51.6738 31.9812 46.2351 26.6549 46.2351 20.0882C46.2351 13.5215 51.6738 8.19518 58.3792 8.19518C63.926 8.19518 68.6023 11.8342 70.055 16.8078L70.079 16.8901C70.3612 17.8483 70.5293 18.9536 70.5293 20.0882C70.5293 23.2393 69.2746 26.1023 67.2336 28.2304ZM58.6733 0.0117625H58.6433C47.4777 0.0176414 38.4312 8.88301 38.4312 19.8119C38.4312 30.7407 47.4837 39.612 58.6493 39.612C69.8149 39.612 78.8674 30.7466 78.8674 19.8119C78.8674 8.87713 69.8209 0.0176414 58.6613 0.0117625H58.6733ZM34.3852 31.8048L32.3622 31.7166H14.1431L38.4192 7.93651L38.3232 5.95532C38.2451 2.7572 35.6158 0.182249 32.3562 0.105824L30.3272 0.0117625H0L0.108054 1.99295C0.264132 5.15579 2.83942 7.67784 6.05102 7.84245H6.06303L8.08604 7.93651H26.3172L2.01101 31.7166L2.11306 33.6919C2.22711 36.8724 4.83242 39.4239 8.06803 39.5414H8.08004L10.1031 39.6355H40.4542L40.3462 37.6543C40.2021 34.4856 37.6148 31.9577 34.3972 31.8166H34.3852V31.8048Z" fill="#0C5CFF"/>
</svg>
